# xmcd CD database file
#
# Track frame offsets:
#	150
#	12465
#	32755
#
# Disc length: 599 seconds
#
# Revision: 2
# Processed by: cddbd v1.5.1PL0 Copyright (c) Steve Scherf et al.
# Submitted via: CDex 1.50
#
DISCID=1c025503
DTITLE=メロン記念日 - 涙の太陽
DYEAR=2004
DGENRE=JPop
TTITLE0=涙の太陽
TTITLE1=さあ、早速盛り上げて 行こか〜!!
TTITLE2=涙の太陽 (Instrumental)
EXTD=3'' CD Maxi Single YEAR: 2004
EXTT0=
EXTT1=
EXTT2=
PLAYORDER=
